<?xml version="1.0" encoding="utf-8"?>
<!-- Generator: Adobe Illustrator 17.0.0, SVG Export Plug-In . SVG Version: 6.00 Build 0)  -->
<!DOCTYPE svg PUBLIC "-//W3C//DTD SVG 1.1//EN" "http://www.w3.org/Graphics/SVG/1.1/DTD/svg11.dtd">
<svg version="1.1" id="Layer_1" xmlns="http://www.w3.org/2000/svg" xmlns:xlink="http://www.w3.org/1999/xlink" x="0px" y="0px"
	 width="336px" height="200px" viewBox="0 0 336 200" enable-background="new 0 0 336 200" xml:space="preserve">
<rect fill="#DA0000" width="336" height="200"/>
<g>
	<path fill="#FFFFFF" d="M48.51,60.379c-3.332,3.449-7.306,4.734-11.749,4.734c-4.559,0-8.3-1.636-11.223-4.559
		c-4.209-4.209-4.092-9.411-4.092-16.601s-0.117-12.393,4.092-16.601c2.923-2.923,6.547-4.559,11.223-4.559
		c9.645,0,14.555,6.313,15.666,13.327h-8.184c-0.935-3.916-3.332-6.079-7.482-6.079c-2.221,0-4.033,0.876-5.202,2.221
		c-1.578,1.754-1.987,3.683-1.987,11.691s0.409,9.995,1.987,11.749c1.169,1.344,2.981,2.163,5.202,2.163
		c2.455,0,4.443-0.877,5.787-2.339c1.344-1.52,1.87-3.391,1.87-5.553v-1.579h-7.657v-6.78h15.724v6.08
		C52.485,53.715,51.433,57.34,48.51,60.379z"/>
	<path fill="#FFFFFF" d="M74.068,64.763v-2.63c-2.046,2.045-3.975,2.923-7.482,2.923c-3.449,0-5.962-0.877-7.774-2.689
		c-1.637-1.695-2.513-4.15-2.513-6.839c0-4.852,3.332-8.826,10.405-8.826h7.19v-1.519c0-3.332-1.636-4.794-5.67-4.794
		c-2.923,0-4.267,0.702-5.846,2.514l-4.851-4.735c2.981-3.273,5.904-4.208,10.989-4.208c8.534,0,12.976,3.623,12.976,10.755v20.049
		H74.068z M73.892,51.903h-6.021c-2.747,0-4.267,1.286-4.267,3.449c0,2.105,1.403,3.507,4.384,3.507
		c2.104,0,3.449-0.175,4.793-1.461c0.818-0.76,1.11-1.987,1.11-3.858V51.903z"/>
	<path fill="#FFFFFF" d="M104.816,64.763v-2.865c-2.104,2.339-4.325,3.215-7.54,3.215c-2.981,0-5.787-1.052-7.482-2.747
		c-3.039-3.039-3.098-8.3-3.098-12.86s0.059-9.762,3.098-12.801c1.695-1.695,4.443-2.747,7.424-2.747
		c3.098,0,5.436,0.818,7.424,3.039V23.145h7.599v41.618H104.816z M99.439,40.797c-4.559,0-5.144,3.741-5.144,8.71
		s0.584,8.768,5.144,8.768c4.559,0,5.202-3.8,5.202-8.768S103.998,40.797,99.439,40.797z"/>
	<path fill="#FFFFFF" d="M129.409,76.278c-4.676,0-7.891-0.935-11.048-3.975l4.735-4.794c1.695,1.637,3.39,2.339,5.962,2.339
		c4.559,0,6.138-3.215,6.138-6.313v-3.098c-1.987,2.222-4.267,3.04-7.248,3.04c-2.981,0-5.553-0.994-7.248-2.689
		c-2.864-2.865-3.098-6.781-3.098-12.1s0.234-9.177,3.098-12.041c1.695-1.695,4.325-2.688,7.307-2.688
		c3.215,0,5.319,0.876,7.424,3.214v-2.864h7.365v29.343C142.794,70.959,137.592,76.278,129.409,76.278z M130.169,40.797
		c-4.501,0-4.968,3.858-4.968,7.891s0.468,7.95,4.968,7.95c4.501,0,5.027-3.917,5.027-7.95S134.67,40.797,130.169,40.797z"/>
	<path fill="#FFFFFF" d="M155.276,51.903c0,3.917,2.397,6.781,6.664,6.781c3.332,0,4.968-0.936,6.897-2.865l4.617,4.501
		c-3.097,3.098-6.079,4.793-11.573,4.793c-7.19,0-14.088-3.273-14.088-15.607c0-9.937,5.378-15.548,13.269-15.548
		c8.476,0,13.269,6.196,13.269,14.555v3.39H155.276z M166.148,43.428c-0.818-1.812-2.513-3.157-5.085-3.157
		c-2.572,0-4.267,1.344-5.085,3.157c-0.467,1.11-0.643,1.929-0.702,3.273h11.574C166.791,45.356,166.616,44.538,166.148,43.428z"/>
	<path fill="#FFFFFF" d="M189.198,64.763c-6.196,0-8.826-4.384-8.826-8.71V40.972h-3.215v-5.787h3.215v-9.001h7.599v9.001h5.378
		v5.787h-5.378v14.614c0,1.754,0.818,2.747,2.63,2.747h2.748v6.43H189.198z"/>
	<path fill="#FFFFFF" d="M214.9,42.609c-1.169-1.169-2.163-1.812-4.033-1.812c-2.338,0-4.91,1.754-4.91,5.612v18.355h-7.599V34.309
		h7.423v2.923c1.462-1.754,4.385-3.273,7.658-3.273c2.981,0,5.085,0.76,7.19,2.864L214.9,42.609z"/>
	<path fill="#FFFFFF" d="M237.254,69.673c-0.643,1.696-1.344,2.981-2.28,3.917c-1.754,1.754-4.033,2.338-6.547,2.338h-2.981v-6.838
		h1.753c2.163,0,3.04-0.526,3.8-2.748l1.286-3.741l-10.405-28.291h8.008l6.313,18.822l6.079-18.822h8.008L237.254,69.673z"/>
</g>
</svg>
